<svg width="184" height="49" viewBox="0 0 184 49" fill="none" xmlns="http://www.w3.org/2000/svg">
<ellipse cx="23.3235" cy="24.3985" rx="20.1096" ry="20.1089" stroke="black" stroke-width="2.55442"/>
<ellipse cx="23.312" cy="30.4823" rx="13.6963" ry="13.6958" stroke="black" stroke-width="2.55442"/>
<ellipse cx="23.312" cy="17.9582" rx="13.6963" ry="13.6686" stroke="black" stroke-width="2.55442"/>
<ellipse cx="23.2701" cy="24.2051" rx="7.39165" ry="7.41856" stroke="black" stroke-width="2.55442"/>
<ellipse cx="23.2807" cy="23.992" rx="2.60882" ry="2.58155" fill="black"/>
<path d="M51.7762 23.8429V7.10339H63.0953C66.7621 7.10339 69.0339 9.27554 69.0339 12.8427C69.0339 16.5094 66.6425 19.0203 63.0953 19.0203H57.0372V23.8429H51.7762ZM57.0372 14.955H61.541C62.9758 14.955 63.7729 14.2974 63.7729 13.1814C63.7729 12.0455 62.9359 11.4078 61.541 11.4078H57.0372V14.955ZM66.4373 23.8429L73.1929 7.10339H81.742L88.4976 23.8429H82.8779L81.4829 20.216H73.432L72.0371 23.8429H66.4373ZM74.9266 16.35H79.9883L78.0553 11.368H76.8597L74.9266 16.35ZM91.7265 23.8429V11.4078H84.7119V7.10339H103.982V11.4078H96.9875V23.8429H91.7265ZM110.405 23.8429V11.4078H103.39V7.10339H122.661V11.4078H115.666V23.8429H110.405ZM123.065 23.8429V7.10339H138.868V11.2883H128.326V13.4405H137.075V17.1471H128.326V19.658H138.868V23.8429H123.065ZM139.817 23.8429V7.10339H150.897C154.903 7.10339 157.513 9.15597 157.513 12.2847C157.513 14.5963 156.099 16.3101 154.026 16.7884C154.883 17.2268 155.561 17.8446 155.999 18.6815L158.669 23.8429H152.99L150.698 19.379C150.2 18.4225 149.642 18.1833 147.828 18.1833H145.078V23.8429H139.817ZM145.078 14.7159H150.021C151.455 14.7159 152.252 14.118 152.252 13.0419C152.252 12.0057 151.416 11.4078 150.021 11.4078H145.078V14.7159ZM159.469 23.8429V7.10339H166.065L172.522 17.3663V7.10339H177.544V23.8429H170.948L164.491 13.5003V23.8429H159.469ZM51.7762 43.8429V27.1034H57.0372V39.5385H65.7856V43.8429H51.7762ZM65.1918 43.8429L71.9474 27.1034H80.4965L87.2521 43.8429H81.6324L80.2374 40.216H72.1865L70.7916 43.8429H65.1918ZM73.6811 36.35H78.7428L76.8098 31.368H75.6142L73.6811 36.35ZM87.4598 43.8429V27.1034H98.739C102.565 27.1034 104.518 28.5382 104.518 31.3879C104.518 33.3807 103.562 34.676 101.549 35.3137C103.821 35.9116 104.957 37.3065 104.957 39.4986C104.957 42.1291 103.342 43.8429 99.297 43.8429H87.4598ZM92.7208 39.7776H97.7825C99.1575 39.7776 99.6956 39.2794 99.6956 38.4225C99.6956 37.5058 99.1774 37.0475 97.7825 37.0475H92.7208V39.7776ZM92.7208 33.8988H97.2444C98.739 33.8988 99.2571 33.4405 99.2571 32.5238C99.2571 31.647 98.6992 31.1687 97.2444 31.1687H92.7208V33.8988ZM105.351 41.3918C105.351 39.7577 106.327 38.7812 107.981 38.7812C109.615 38.7812 110.592 39.7577 110.592 41.3918C110.592 43.0657 109.615 44.0422 107.981 44.0422C106.327 44.0422 105.351 43.0657 105.351 41.3918ZM110.388 43.8429L117.143 27.1034H125.693L132.448 43.8429H126.828L125.433 40.216H117.383L115.988 43.8429H110.388ZM118.877 36.35H123.939L122.006 31.368H120.81L118.877 36.35ZM132.656 43.8429V27.1034H137.917V43.8429H132.656Z" fill="black"/>
</svg>
